# xmcd
#
# Track frame offsets: 
#        150
#        14192
#        27435
#        39194
#        47887
#        58769
#        73017
#        84355
#        92944
#        103012
#
# Disc length: 1543 seconds
#
# Revision: 0
# Processed by: cddbd v1.5.2PL0 Copyright (c) Steve Scherf et al.
# Submitted via: ExactAudioCopy v1.3
#
DISCID=8606050a
DTITLE=Hank Williams, Jr. - After You Pride's Not Hard to Swallow
DYEAR=1973
DGENRE=Country
TTITLE0=After You
TTITLE1=Name Dropper
TTITLE2=I Love You A Thousand Ways
TTITLE3=One Out Of Three Ain't Bad
TTITLE4=She Went A Little Bit Farther
TTITLE5=Pride's Not Hard To Swallow
TTITLE6=I Can't Cry Back In
TTITLE7=Country Music-Those Tear Jerking Songs
TTITLE8=A Picture Of Me (Without You)
TTITLE9=Knoxville Courthouse Blues
EXTD=
EXTT0=
EXTT1=
EXTT2=
EXTT3=
EXTT4=
EXTT5=
EXTT6=
EXTT7=
EXTT8=
EXTT9=
PLAYORDER=
